<?xml version="1.0" encoding="iso-8859-1"?>
<!-- Generator: Adobe Illustrator 19.0.0, SVG Export Plug-In . SVG Version: 6.00 Build 0)  -->
<svg version="1.1" id="Capa_1" xmlns="http://www.w3.org/2000/svg" xmlns:xlink="http://www.w3.org/1999/xlink" x="0px" y="0px"
	 viewBox="0 0 512 512" style="enable-background:new 0 0 512 512;" xml:space="preserve">
<g>
	<g>
		<path d="M457.529,35.293H54.471C24.436,35.293,0,59.729,0,89.765v332.47c0,30.036,24.436,54.472,54.471,54.472h403.057
			c30.036,0,54.471-24.437,54.471-54.472V89.765C512,59.729,487.565,35.293,457.529,35.293z M481.994,422.235
			c0,13.491-10.976,24.467-24.466,24.467H54.471c-13.49,0-24.466-10.975-24.466-24.467V139.401h451.989V422.235z M481.994,109.396
			H30.006V89.765c0-13.491,10.976-24.467,24.466-24.467H374.39v17.878c0,8.286,6.717,15.003,15.003,15.003
			s15.003-6.717,15.003-15.003V65.298h13.788v17.878c0,8.286,6.717,15.003,15.003,15.003c8.286,0,15.003-6.717,15.003-15.003V65.298
			h9.34c13.49,0,24.466,10.976,24.466,24.467V109.396z"/>
	</g>
</g>
<g>
	<g>
		<path d="M79.423,86.054c-0.051-0.49-0.121-0.98-0.22-1.46c-0.09-0.48-0.21-0.96-0.36-1.42c-0.14-0.47-0.31-0.94-0.49-1.39
			c-0.189-0.45-0.399-0.89-0.63-1.32c-0.229-0.44-0.479-0.86-0.75-1.27c-0.27-0.4-0.569-0.8-0.88-1.18
			c-0.31-0.38-0.64-0.75-0.99-1.1c-0.34-0.34-0.71-0.67-1.09-0.99c-0.38-0.3-0.78-0.6-1.189-0.87c-0.4-0.27-0.83-0.52-1.261-0.75
			c-0.43-0.23-0.88-0.44-1.33-0.63c-0.449-0.19-0.909-0.35-1.38-0.5c-0.46-0.14-0.939-0.26-1.42-0.36
			c-0.479-0.09-0.97-0.17-1.46-0.21c-0.97-0.1-1.97-0.1-2.951,0c-0.479,0.04-0.97,0.12-1.449,0.21c-0.48,0.1-0.96,0.22-1.431,0.36
			c-0.46,0.15-0.93,0.31-1.38,0.5c-0.45,0.19-0.899,0.4-1.33,0.63c-0.43,0.23-0.85,0.48-1.26,0.75c-0.41,0.27-0.81,0.57-1.18,0.87
			c-0.38,0.32-0.75,0.65-1.101,0.99c-0.35,0.35-0.68,0.72-0.989,1.1c-0.311,0.38-0.601,0.78-0.87,1.18
			c-0.271,0.41-0.53,0.83-0.761,1.27c-0.229,0.43-0.439,0.87-0.619,1.32c-0.19,0.45-0.36,0.92-0.5,1.39
			c-0.141,0.46-0.261,0.94-0.36,1.42c-0.099,0.48-0.17,0.97-0.22,1.46c-0.051,0.48-0.07,0.98-0.07,1.47s0.02,0.99,0.07,1.48
			c0.05,0.48,0.12,0.97,0.22,1.45c0.1,0.48,0.22,0.96,0.36,1.43c0.14,0.46,0.31,0.93,0.5,1.38c0.18,0.45,0.39,0.89,0.619,1.32
			c0.23,0.44,0.49,0.86,0.761,1.27c0.27,0.4,0.56,0.8,0.87,1.18s0.64,0.75,0.989,1.1c0.351,0.34,0.721,0.68,1.101,0.99
			c0.37,0.31,0.77,0.6,1.18,0.87c0.41,0.27,0.83,0.52,1.26,0.75c0.431,0.23,0.88,0.44,1.33,0.63c0.45,0.19,0.92,0.35,1.38,0.5
			c0.471,0.14,0.95,0.26,1.431,0.36c0.479,0.09,0.97,0.17,1.449,0.22c0.49,0.04,0.99,0.07,1.48,0.07s0.979-0.03,1.47-0.07
			c0.49-0.05,0.98-0.13,1.46-0.22c0.48-0.1,0.96-0.22,1.42-0.36c0.471-0.15,0.931-0.31,1.38-0.5c0.45-0.19,0.9-0.4,1.33-0.63
			c0.431-0.23,0.86-0.48,1.261-0.75c0.409-0.27,0.81-0.56,1.189-0.87c0.379-0.31,0.75-0.65,1.09-0.99
			c0.351-0.35,0.681-0.72,0.99-1.1c0.311-0.38,0.61-0.78,0.88-1.18c0.271-0.41,0.521-0.83,0.75-1.27c0.23-0.43,0.44-0.87,0.63-1.32
			c0.181-0.45,0.351-0.92,0.49-1.38c0.15-0.47,0.271-0.95,0.36-1.43c0.1-0.48,0.17-0.97,0.22-1.45c0.05-0.49,0.08-0.99,0.08-1.48
			S79.473,86.534,79.423,86.054z"/>
	</g>
</g>
<g>
	<g>
		<path d="M121.86,86.054c-0.05-0.49-0.12-0.98-0.22-1.46c-0.1-0.48-0.22-0.96-0.36-1.43c-0.14-0.46-0.31-0.93-0.5-1.38
			c-0.18-0.45-0.39-0.89-0.619-1.32c-0.23-0.44-0.49-0.86-0.761-1.27c-0.27-0.4-0.56-0.8-0.87-1.18s-0.649-0.75-0.989-1.1
			c-0.351-0.34-0.721-0.68-1.101-0.99c-0.37-0.31-0.77-0.6-1.18-0.87c-0.41-0.27-0.83-0.52-1.26-0.75
			c-0.431-0.23-0.88-0.44-1.33-0.63c-0.45-0.19-0.92-0.35-1.38-0.5c-0.471-0.14-0.95-0.26-1.431-0.36
			c-0.479-0.09-0.97-0.17-1.449-0.22c-0.98-0.09-1.971-0.09-2.951,0c-0.49,0.05-0.98,0.13-1.46,0.22c-0.48,0.1-0.96,0.22-1.42,0.36
			c-0.471,0.15-0.931,0.31-1.38,0.5c-0.461,0.19-0.9,0.4-1.33,0.63c-0.431,0.23-0.86,0.48-1.261,0.75
			c-0.409,0.27-0.81,0.56-1.189,0.87s-0.75,0.65-1.09,0.99c-0.351,0.35-0.681,0.72-0.99,1.1c-0.311,0.38-0.61,0.78-0.88,1.18
			c-0.271,0.41-0.521,0.83-0.75,1.27c-0.23,0.43-0.44,0.87-0.63,1.32c-0.181,0.45-0.351,0.92-0.49,1.38
			c-0.15,0.47-0.271,0.95-0.36,1.43c-0.1,0.48-0.17,0.97-0.22,1.46c-0.05,0.48-0.08,0.98-0.08,1.47s0.03,0.99,0.08,1.48
			c0.05,0.48,0.12,0.97,0.22,1.45c0.09,0.48,0.21,0.96,0.36,1.43c0.14,0.46,0.31,0.93,0.49,1.38c0.189,0.45,0.399,0.9,0.63,1.33
			c0.229,0.43,0.479,0.85,0.75,1.26c0.27,0.41,0.569,0.8,0.88,1.18c0.31,0.38,0.64,0.75,0.99,1.1c0.34,0.34,0.71,0.68,1.09,0.99
			s0.78,0.6,1.189,0.87c0.4,0.27,0.83,0.52,1.261,0.75c0.43,0.23,0.869,0.44,1.33,0.63c0.449,0.19,0.909,0.35,1.38,0.5
			c0.46,0.14,0.939,0.26,1.42,0.36c0.479,0.09,0.97,0.17,1.46,0.22c0.49,0.04,0.979,0.07,1.47,0.07s0.99-0.03,1.48-0.07
			c0.479-0.05,0.97-0.13,1.449-0.22c0.48-0.1,0.96-0.22,1.431-0.36c0.46-0.15,0.93-0.31,1.38-0.5c0.45-0.19,0.899-0.4,1.33-0.63
			c0.43-0.23,0.85-0.48,1.26-0.75c0.41-0.27,0.81-0.56,1.18-0.87c0.38-0.31,0.75-0.65,1.101-0.99c0.34-0.35,0.68-0.72,0.989-1.1
			c0.311-0.38,0.601-0.77,0.87-1.18c0.271-0.41,0.53-0.83,0.761-1.26c0.229-0.43,0.439-0.88,0.619-1.33
			c0.19-0.45,0.36-0.92,0.5-1.38c0.141-0.47,0.261-0.95,0.36-1.43c0.099-0.48,0.17-0.97,0.22-1.45c0.051-0.49,0.07-0.99,0.07-1.48
			S121.91,86.534,121.86,86.054z"/>
	</g>
</g>
<g>
	<g>
		<path d="M164.868,86.054c-0.05-0.49-0.13-0.98-0.22-1.46c-0.1-0.48-0.22-0.96-0.36-1.43c-0.14-0.46-0.31-0.93-0.5-1.38
			c-0.18-0.45-0.399-0.89-0.63-1.33c-0.22-0.43-0.479-0.85-0.75-1.26c-0.27-0.41-0.56-0.8-0.87-1.18s-0.649-0.75-0.989-1.1
			c-0.351-0.34-0.721-0.68-1.101-0.99c-0.37-0.31-0.77-0.6-1.18-0.87c-0.41-0.27-0.83-0.52-1.26-0.75
			c-0.431-0.23-0.88-0.44-1.33-0.63c-0.45-0.19-0.92-0.35-1.38-0.5c-0.471-0.14-0.95-0.26-1.431-0.36
			c-0.479-0.09-0.97-0.17-1.449-0.22c-0.98-0.09-1.971-0.09-2.951,0c-0.49,0.05-0.98,0.13-1.46,0.22c-0.48,0.1-0.96,0.22-1.42,0.36
			c-0.471,0.15-0.931,0.31-1.391,0.5c-0.45,0.19-0.89,0.4-1.319,0.63c-0.431,0.23-0.86,0.48-1.261,0.75
			c-0.409,0.27-0.81,0.56-1.189,0.87c-0.379,0.31-0.75,0.65-1.09,0.99c-0.351,0.35-0.681,0.72-0.99,1.1
			c-0.311,0.38-0.61,0.77-0.88,1.18c-0.271,0.41-0.521,0.83-0.75,1.26c-0.23,0.44-0.44,0.88-0.63,1.33
			c-0.181,0.45-0.351,0.92-0.49,1.38c-0.15,0.47-0.271,0.95-0.36,1.43c-0.1,0.48-0.17,0.97-0.22,1.46
			c-0.05,0.48-0.08,0.98-0.08,1.47s0.03,0.99,0.08,1.48c0.05,0.48,0.12,0.97,0.22,1.45c0.09,0.48,0.21,0.96,0.36,1.43
			c0.14,0.46,0.31,0.93,0.49,1.38c0.189,0.45,0.399,0.89,0.63,1.32c0.229,0.44,0.479,0.86,0.75,1.27c0.27,0.4,0.569,0.8,0.88,1.18
			c0.31,0.38,0.64,0.75,0.99,1.1c0.34,0.34,0.71,0.68,1.09,0.99c0.38,0.31,0.78,0.6,1.189,0.87c0.4,0.27,0.83,0.52,1.261,0.75
			c0.43,0.23,0.869,0.44,1.319,0.63c0.46,0.19,0.92,0.36,1.391,0.5c0.46,0.14,0.939,0.26,1.42,0.36c0.479,0.09,0.97,0.17,1.46,0.22
			c0.49,0.05,0.979,0.07,1.47,0.07s0.99-0.02,1.48-0.07c0.479-0.05,0.97-0.13,1.449-0.22c0.48-0.1,0.96-0.22,1.431-0.36
			c0.46-0.14,0.93-0.31,1.38-0.5c0.45-0.19,0.899-0.4,1.33-0.63c0.43-0.23,0.85-0.48,1.26-0.75c0.41-0.27,0.81-0.56,1.18-0.87
			c0.38-0.31,0.75-0.65,1.101-0.99c0.34-0.35,0.68-0.72,0.989-1.1c0.311-0.38,0.601-0.78,0.87-1.18c0.271-0.41,0.53-0.83,0.75-1.27
			c0.23-0.43,0.45-0.87,0.63-1.32c0.19-0.45,0.36-0.92,0.5-1.38c0.141-0.47,0.261-0.95,0.36-1.43c0.09-0.48,0.17-0.97,0.22-1.45
			c0.051-0.49,0.07-0.99,0.07-1.48S164.918,86.534,164.868,86.054z"/>
	</g>
</g>
<g>
	<g>
		<path d="M129.964,295.053l61.192-61.193c5.859-5.859,5.859-15.358,0-21.217c-5.858-5.859-15.358-5.859-21.217,0l-71.136,71.138
			c-3.099,3.099-4.542,7.214-4.363,11.272c-0.179,4.058,1.264,8.174,4.363,11.272l71.138,71.137c2.93,2.93,6.769,4.395,10.608,4.395
			c3.839,0,7.68-1.465,10.608-4.395c5.859-5.858,5.859-15.358,0-21.217L129.964,295.053z"/>
	</g>
</g>
<g>
	<g>
		<path d="M410.394,283.655l-71.138-71.137c-5.858-5.859-15.358-5.859-21.217,0c-5.859,5.859-5.859,15.358,0,21.217l61.193,61.193
			l-61.193,61.193c-5.858,5.858-5.858,15.358,0.001,21.217c2.93,2.93,6.769,4.395,10.608,4.395c3.839,0,7.679-1.465,10.608-4.395
			l71.138-71.137c3.099-3.099,4.542-7.214,4.363-11.272C414.936,290.869,413.492,286.753,410.394,283.655z"/>
	</g>
</g>
<g>
	<g>
		<path d="M284.156,175.467c-7.998-2.166-16.237,2.563-18.401,10.56l-55.66,205.563c-2.165,7.999,2.562,16.237,10.56,18.403
			c1.313,0.355,2.632,0.525,3.93,0.525c6.608,0,12.662-4.401,14.473-11.085l55.66-205.563
			C296.882,185.871,292.154,177.633,284.156,175.467z"/>
	</g>
</g>
<g>
</g>
<g>
</g>
<g>
</g>
<g>
</g>
<g>
</g>
<g>
</g>
<g>
</g>
<g>
</g>
<g>
</g>
<g>
</g>
<g>
</g>
<g>
</g>
<g>
</g>
<g>
</g>
<g>
</g>
</svg>
